<?xml version="1.0" encoding="UTF-8"?>
<svg xmlns="http://www.w3.org/2000/svg" xmlns:xlink="http://www.w3.org/1999/xlink"
     width="1200" height="1200" viewBox="0 0 600 600">
<defs>
<marker markerWidth="5.0" markerHeight="5.0" viewBox="-0.1 -0.5 1.0 1.0" orient="auto" id="d0">
<path d="M-0.4,-0.5 L-0.1,0.3 L0.5,0 Z" fill="black" />
</marker>
</defs>
<path d="M10,10 L10,20" stroke-width="2" stroke="black" fill="none" marker-end="url(#d0)" />
<path d="M10,20 L20,20" stroke-width="2" stroke="black" fill="none" marker-end="url(#d0)" />
<path d="M10,40 L10,50" stroke-width="2" stroke="black" fill="none" marker-end="url(#d0)" />
<path d="M10,50 L10,60" stroke-width="2" stroke="black" fill="none" marker-end="url(#d0)" />
<path d="M10,60 L20,60" stroke-width="2" stroke="black" fill="none" marker-end="url(#d0)" />
<path d="M20,10 L10,10" stroke-width="2" stroke="black" fill="none" marker-end="url(#d0)" />
<path d="M20,20 L20,30" stroke-width="2" stroke="black" fill="none" marker-end="url(#d0)" />
<path d="M20,30 L30,30" stroke-width="2" stroke="black" fill="none" marker-end="url(#d0)" />
<path d="M20,40 L10,40" stroke-width="2" stroke="black" fill="none" marker-end="url(#d0)" />
<path d="M20,50 L30,50" stroke-width="2" stroke="black" fill="none" marker-end="url(#d0)" />
<path d="M20,60 L20,50" stroke-width="2" stroke="black" fill="none" marker-end="url(#d0)" />
<path d="M30,10 L20,10" stroke-width="2" stroke="black" fill="none" marker-end="url(#d0)" />
<path d="M30,20 L30,10" stroke-width="2" stroke="black" fill="none" marker-end="url(#d0)" />
<path d="M30,30 L30,40" stroke-width="2" stroke="black" fill="none" marker-end="url(#d0)" />
<path d="M30,40 L20,40" stroke-width="2" stroke="black" fill="none" marker-end="url(#d0)" />
<path d="M30,50 L40,50" stroke-width="2" stroke="black" fill="none" marker-end="url(#d0)" />
<path d="M40,10 L40,20" stroke-width="2" stroke="black" fill="none" marker-end="url(#d0)" />
<path d="M40,20 L30,20" stroke-width="2" stroke="black" fill="none" marker-end="url(#d0)" />
<path d="M40,30 L50,30" stroke-width="2" stroke="black" fill="none" marker-end="url(#d0)" />
<path d="M40,40 L40,30" stroke-width="2" stroke="black" fill="none" marker-end="url(#d0)" />
<path d="M40,50 L40,60" stroke-width="2" stroke="black" fill="none" marker-end="url(#d0)" />
<path d="M40,60 L50,60" stroke-width="2" stroke="black" fill="none" marker-end="url(#d0)" />
<path d="M50,10 L40,10" stroke-width="2" stroke="black" fill="none" marker-end="url(#d0)" />
<path d="M50,20 L60,20" stroke-width="2" stroke="black" fill="none" marker-end="url(#d0)" />
<path d="M50,30 L50,20" stroke-width="2" stroke="black" fill="none" marker-end="url(#d0)" />
<path d="M50,40 L40,40" stroke-width="2" stroke="black" fill="none" marker-end="url(#d0)" />
<path d="M50,50 L50,40" stroke-width="2" stroke="black" fill="none" marker-end="url(#d0)" />
<path d="M50,60 L60,60" stroke-width="2" stroke="black" fill="none" marker-end="url(#d0)" />
<path d="M60,10 L50,10" stroke-width="2" stroke="black" fill="none" marker-end="url(#d0)" />
<path d="M60,20 L60,10" stroke-width="2" stroke="black" fill="none" marker-end="url(#d0)" />
<path d="M60,50 L50,50" stroke-width="2" stroke="black" fill="none" marker-end="url(#d0)" />
<path d="M60,60 L60,50" stroke-width="2" stroke="black" fill="none" marker-end="url(#d0)" />
</svg>